<?xml version="1.0" standalone="no"?>
<!DOCTYPE svg PUBLIC "-//W3C//DTD SVG 20010904//EN"
 "http://www.w3.org/TR/2001/REC-SVG-20010904/DTD/svg10.dtd">
<svg version="1.0" xmlns="http://www.w3.org/2000/svg"
 width="1024.000000pt" height="1024.000000pt" viewBox="0 0 1024.000000 1024.000000"
 preserveAspectRatio="xMidYMid meet">

<g transform="translate(0.000000,1024.000000) scale(0.100000,-0.100000)"
fill="#000000" stroke="none">
<path d="M3220 7783 c-146 -26 -242 -111 -276 -245 -34 -133 12 -259 126 -343
28 -21 124 -71 213 -112 548 -252 821 -423 1177 -738 221 -196 354 -352 380
-444 9 -34 15 -2331 6 -2331 -2 0 -35 18 -74 40 -38 22 -73 40 -77 40 -8 0
-69 -52 -255 -219 -230 -206 -280 -253 -280 -260 0 -14 404 -210 497 -241 471
-157 899 -104 1400 173 62 34 113 65 113 68 0 3 -50 51 -112 105 -62 54 -137
122 -168 149 -131 117 -242 211 -260 219 -14 7 -28 3 -52 -16 -18 -13 -50 -34
-71 -47 l-37 -23 2 1134 3 1133 22 66 c39 113 162 264 358 439 346 309 622
480 1271 788 87 41 122 64 161 105 128 135 126 336 -6 468 -71 70 -130 93
-234 87 -66 -3 -86 -10 -222 -76 -542 -264 -986 -541 -1295 -807 -98 -85 -299
-287 -340 -343 -13 -18 -27 -32 -30 -32 -4 0 -58 52 -121 116 -341 348 -496
475 -850 697 -223 140 -638 359 -810 427 -50 20 -121 30 -159 23z"/>
<path d="M3422 6667 c-228 -232 -337 -486 -335 -782 2 -179 59 -363 161 -512
57 -83 182 -201 287 -269 49 -32 218 -118 375 -192 157 -73 383 -181 503 -239
120 -58 221 -102 225 -98 9 9 3 698 -6 707 -4 4 -140 68 -302 143 -466 215
-507 240 -565 346 -28 50 -30 62 -30 154 0 89 3 106 27 150 30 57 97 124 155
153 53 27 169 62 207 62 17 0 38 5 46 10 13 8 12 12 -5 29 -63 60 -461 318
-593 385 l-69 35 -81 -82z"/>
<path d="M6705 6682 c-181 -106 -319 -193 -424 -267 -118 -84 -142 -105 -136
-115 2 -4 35 -10 72 -13 144 -14 225 -55 297 -152 138 -183 75 -406 -149 -528
-38 -21 -146 -74 -240 -118 -462 -219 -443 -208 -449 -243 -8 -43 -6 -676 2
-676 4 0 106 47 227 104 121 58 346 164 499 235 348 163 417 203 526 311 174
172 262 353 290 599 26 224 -40 476 -180 681 -57 84 -199 240 -218 240 -10 0
-62 -26 -117 -58z"/>
<path d="M3107 5233 c-17 -28 -32 -213 -31 -373 1 -212 17 -326 70 -491 53
-164 205 -446 250 -463 10 -4 28 8 52 37 61 72 270 274 343 332 38 31 69 61
69 68 0 7 -16 34 -35 61 -56 79 -97 197 -103 298 -2 47 -7 90 -11 96 -3 5 -44
26 -91 46 -200 88 -354 199 -455 328 -30 37 -56 65 -58 61z"/>
<path d="M7147 5183 c-44 -60 -178 -190 -237 -230 -64 -43 -174 -96 -251 -122
l-66 -22 -6 -93 c-6 -113 -37 -208 -95 -294 -23 -33 -42 -65 -42 -71 0 -6 31
-35 69 -65 94 -75 291 -266 337 -326 21 -28 46 -50 56 -50 44 0 189 254 251
440 56 171 72 277 72 495 0 143 -5 214 -18 288 -11 53 -23 97 -27 97 -5 0 -24
-21 -43 -47z"/>
<path d="M5670 4166 l0 -325 33 -25 c17 -14 86 -66 152 -115 66 -49 237 -187
380 -306 423 -353 630 -500 749 -532 140 -38 300 38 368 175 19 40 23 63 23
147 0 89 -3 106 -28 157 -39 80 -111 141 -262 223 -137 73 -238 149 -439 330
-244 220 -402 333 -621 446 -114 58 -263 123 -332 144 l-22 6 -1 -325z"/>
<path d="M4535 4440 c-319 -111 -525 -245 -916 -592 -203 -181 -242 -209 -403
-296 -165 -90 -206 -124 -248 -210 -30 -60 -33 -75 -33 -157 0 -107 19 -157
86 -230 104 -112 267 -136 419 -60 99 50 328 228 635 494 256 221 337 286 460
368 55 37 102 69 105 71 6 5 9 589 2 620 -5 27 -8 27 -107 -8z"/>
</g>
</svg>
